<svg width="180" height="30" viewBox="0 0 180 30" fill="none" xmlns="http://www.w3.org/2000/svg">
<path d="M24.9175 12.415L23.7931 17.6621H28.1203V21.9211H22.8732L21.6466 27.7134H17.115L18.3416 21.9211H12.1405L10.9139 27.7134H6.41634L7.64294 21.9211H2.49805V17.6621H8.56289L9.68727 12.415H4.57645V8.15597H10.6072L11.7997 2.5H16.2973L15.1047 8.15597H21.3059L22.4984 2.5H27.03L25.8375 8.15597H30.1987V12.415H24.9175ZM20.3859 12.415H14.1848L13.0604 17.6621H19.2615L20.3859 12.415Z" fill="#4A3830"/>
<path d="M48.5295 23.6929H59.2281V27.7134H43.0098V24.0336L53.6403 7.95154H43.0098V3.93103H59.2281V7.61082L48.5295 23.6929Z" fill="#4A3830"/>
<path d="M75.0094 27.9519C72.7834 27.9519 70.739 27.4294 68.8764 26.3846C67.0138 25.3397 65.5374 23.8973 64.447 22.0574C63.3567 20.1948 62.8116 18.0937 62.8116 15.7541C62.8116 13.4372 63.3567 11.3588 64.447 9.51886C65.5374 7.65625 67.0138 6.2025 68.8764 5.15762C70.739 4.11275 72.7834 3.59031 75.0094 3.59031C77.2582 3.59031 79.3025 4.11275 81.1424 5.15762C83.005 6.2025 84.4701 7.65625 85.5377 9.51886C86.628 11.3588 87.1732 13.4372 87.1732 15.7541C87.1732 18.0937 86.628 20.1948 85.5377 22.0574C84.4701 23.8973 83.005 25.3397 81.1424 26.3846C79.2798 27.4294 77.2355 27.9519 75.0094 27.9519ZM75.0094 23.6929C76.4404 23.6929 77.7011 23.3749 78.7914 22.7388C79.8817 22.0801 80.7335 21.1488 81.3468 19.9449C81.9601 18.7411 82.2668 17.3441 82.2668 15.7541C82.2668 14.164 81.9601 12.7784 81.3468 11.5973C80.7335 10.3934 79.8817 9.47343 78.7914 8.83742C77.7011 8.2014 76.4404 7.8834 75.0094 7.8834C73.5784 7.8834 72.3064 8.2014 71.1933 8.83742C70.103 9.47343 69.2512 10.3934 68.6379 11.5973C68.0246 12.7784 67.718 14.164 67.718 15.7541C67.718 17.3441 68.0246 18.7411 68.6379 19.9449C69.2512 21.1488 70.103 22.0801 71.1933 22.7388C72.3064 23.3749 73.5784 23.6929 75.0094 23.6929Z" fill="#4A3830"/>
<path d="M104.896 15.5156C106.236 15.7654 107.338 16.4355 108.201 17.5258C109.064 18.6161 109.496 19.8654 109.496 21.2737C109.496 22.5458 109.178 23.6702 108.542 24.6469C107.928 25.6009 107.031 26.3505 105.85 26.8956C104.669 27.4408 103.272 27.7134 101.659 27.7134H91.4034V3.93103H101.216C102.829 3.93103 104.215 4.19225 105.373 4.71469C106.554 5.23713 107.44 5.964 108.031 6.89531C108.644 7.82661 108.951 8.88285 108.951 10.064C108.951 11.4496 108.576 12.6081 107.826 13.5394C107.099 14.4707 106.123 15.1294 104.896 15.5156ZM96.1735 13.7438H100.535C101.67 13.7438 102.545 13.4939 103.158 12.9942C103.772 12.4718 104.078 11.7335 104.078 10.7795C104.078 9.82551 103.772 9.08728 103.158 8.56484C102.545 8.0424 101.67 7.78118 100.535 7.78118H96.1735V13.7438ZM100.978 23.8292C102.136 23.8292 103.033 23.5566 103.669 23.0114C104.328 22.4663 104.657 21.694 104.657 20.6945C104.657 19.6724 104.317 18.8773 103.635 18.3095C102.954 17.7189 102.034 17.4236 100.875 17.4236H96.1735V23.8292H100.978Z" fill="#4A3830"/>
<path d="M128.562 23.1818H119.09L117.522 27.7134H112.514L121.066 3.89696H126.62L135.172 27.7134H130.129L128.562 23.1818ZM127.267 19.3657L123.826 9.41664L120.384 19.3657H127.267Z" fill="#4A3830"/>
<path d="M153.633 23.1818H144.161L142.593 27.7134H137.585L146.137 3.89696H151.691L160.243 27.7134H155.2L153.633 23.1818ZM152.338 19.3657L148.897 9.41664L145.455 19.3657H152.338Z" fill="#4A3830"/>
<path d="M178.664 4.77739L173.878 20.5324L169.994 19.4918L173.694 3.44579L178.664 4.77739ZM169.971 27.7398C169.137 27.5164 168.514 27.0788 168.1 26.4272C167.715 25.7596 167.625 25.0418 167.831 24.2738C168.037 23.5059 168.47 22.9402 169.132 22.5766C169.822 22.197 170.584 22.1189 171.417 22.3423C172.229 22.5598 172.828 23.0024 173.213 23.6701C173.605 24.3159 173.697 25.0227 173.492 25.7906C173.286 26.5585 172.849 27.1352 172.181 27.5207C171.52 27.8843 170.783 27.9573 169.971 27.7398Z" fill="#4A3830"/>
</svg>
