<svg width="270" height="45" viewBox="0 0 270 45" fill="none" xmlns="http://www.w3.org/2000/svg">
<path d="M37.3765 19.1225L35.6899 26.9931H42.1807V33.3817H34.31L32.4701 42.0701H25.6727L27.5126 33.3817H18.2109L16.371 42.0701H9.62473L11.4646 33.3817H3.74728V26.9931H12.8445L14.5311 19.1225H6.86488V12.734H15.911L17.6998 4.25H24.4461L22.6573 12.734H31.959L33.7478 4.25H40.5452L38.7564 12.734H45.2983V19.1225H37.3765ZM30.5791 19.1225H21.2774L19.5908 26.9931H28.8925L30.5791 19.1225Z" fill="white"/>
<path d="M72.7945 36.0393H88.8424V42.0701H64.5149V36.5504L80.4607 12.4273H64.5149V6.39654H88.8424V11.9162L72.7945 36.0393Z" fill="white"/>
<path d="M112.514 42.4278C109.175 42.4278 106.109 41.6442 103.315 40.0768C100.521 38.5095 98.3063 36.346 96.6708 33.5861C95.0353 30.7922 94.2176 27.6405 94.2176 24.1311C94.2176 20.6557 95.0353 17.5381 96.6708 14.7783C98.3063 11.9844 100.521 9.80376 103.315 8.23644C106.109 6.66912 109.175 5.88546 112.514 5.88546C115.887 5.88546 118.954 6.66912 121.714 8.23644C124.508 9.80376 126.705 11.9844 128.307 14.7783C129.942 17.5381 130.76 20.6557 130.76 24.1311C130.76 27.6405 129.942 30.7922 128.307 33.5861C126.705 36.346 124.508 38.5095 121.714 40.0768C118.92 41.6442 115.853 42.4278 112.514 42.4278ZM112.514 36.0393C114.661 36.0393 116.552 35.5623 118.187 34.6083C119.823 33.6202 121.101 32.2232 122.02 30.4174C122.94 28.6116 123.4 26.5161 123.4 24.1311C123.4 21.746 122.94 19.6676 122.02 17.8959C121.101 16.0901 119.823 14.7101 118.187 13.7561C116.552 12.8021 114.661 12.3251 112.514 12.3251C110.368 12.3251 108.46 12.8021 106.79 13.7561C105.155 14.7101 103.877 16.0901 102.957 17.8959C102.037 19.6676 101.577 21.746 101.577 24.1311C101.577 26.5161 102.037 28.6116 102.957 30.4174C103.877 32.2232 105.155 33.6202 106.79 34.6083C108.46 35.5623 110.368 36.0393 112.514 36.0393Z" fill="white"/>
<path d="M157.344 23.7733C159.354 24.1481 161.007 25.1533 162.302 26.7887C163.596 28.4242 164.244 30.2981 164.244 32.4106C164.244 34.3187 163.767 36.0052 162.813 37.4703C161.893 38.9014 160.547 40.0257 158.775 40.8435C157.003 41.6612 154.908 42.0701 152.489 42.0701H137.105V6.39654H151.825C154.244 6.39654 156.322 6.78837 158.06 7.57203C159.831 8.35569 161.16 9.446 162.046 10.843C162.966 12.2399 163.426 13.8243 163.426 15.596C163.426 17.6744 162.864 19.4121 161.74 20.8091C160.649 22.206 159.184 23.1941 157.344 23.7733ZM144.261 21.1157H150.802C152.506 21.1157 153.818 20.7409 154.738 19.9913C155.658 19.2077 156.118 18.1003 156.118 16.6693C156.118 15.2383 155.658 14.1309 154.738 13.3473C153.818 12.5636 152.506 12.1718 150.802 12.1718H144.261V21.1157ZM151.467 36.2437C153.204 36.2437 154.55 35.8349 155.504 35.0171C156.492 34.1994 156.986 33.041 156.986 31.5418C156.986 30.0085 156.475 28.816 155.453 27.9642C154.431 27.0783 153.051 26.6354 151.313 26.6354H144.261V36.2437H151.467Z" fill="white"/>
<path d="M192.843 35.2727H178.635L176.284 42.0701H168.771L181.599 6.34543H189.93L202.758 42.0701H195.194L192.843 35.2727ZM190.901 29.5486L185.739 14.625L180.577 29.5486H190.901Z" fill="white"/>
<path d="M230.449 35.2727H216.241L213.89 42.0701H206.377L219.206 6.34543H227.536L240.364 42.0701H232.8L230.449 35.2727ZM228.507 29.5486L223.345 14.625L218.183 29.5486H228.507Z" fill="white"/>
<path d="M267.996 7.66572L260.817 31.2982L254.991 29.7373L260.541 5.66832L267.996 7.66572ZM254.957 42.1093C253.706 41.7742 252.771 41.1179 252.151 40.1405C251.573 39.139 251.438 38.0623 251.747 36.9104C252.055 35.7585 252.706 34.9099 253.699 34.3646C254.733 33.7952 255.876 33.678 257.126 34.0131C258.344 34.3394 259.242 35.0033 259.82 36.0048C260.407 36.9734 260.546 38.0337 260.238 39.1856C259.929 40.3374 259.274 41.2025 258.273 41.7807C257.28 42.326 256.175 42.4355 254.957 42.1093Z" fill="white"/>
</svg>
